#!OML:ASF H:\ManfredETheater\Project 1\Capture day 1\Session 1\subject.ASF
:FULLY-SPECIFIED
:DEGREES
155
root 9.41887 16.4227 30.4275 13.0592 6.02316 -2.85188
lowerback 9.58617 1.98667 5.16336
upperback -1.89837 3.51529 3.13721
thorax -7.29146 1.57029 -0.138349
lowerneck -23.4639 -4.55628 -5.6581
upperneck 12.1218 -4.43396 0.56581
head 7.66791 -2.33073 0.504923
rclavicle -2.24627e-014 -2.8625e-014
rhumerus -43.7838 17.0729 -90.4867
rradius 128.763
rwrist -8.89233
rhand -23.7878 13.3015
rfingers 7.12502
rthumb 2.68233 -16.6613
lclavicle -2.24627e-014 -2.8625e-014
lhumerus -84.0088 -5.86329 94.9106
lradius 104.759
lwrist 10.9874
lhand -23.0363 -11.4887
lfingers 7.12502
lthumb 3.40805 18.4638
rfemur 12.8038 3.30103 29.3357
rtibia 38.9069
rfoot 13.3627 -5.23268
rtoes -35.4363
lfemur -61.8376 0.917645 -19.4873
ltibia 39.531
lfoot 7.23782 -10.1736
ltoes -21.4608
156
root 9.42584 16.383 30.9902 12.5436 5.43878 -3.07914
lowerback 9.58794 2.12948 4.91696
upperback -1.76885 3.66337 3.0842
thorax -7.15861 1.65625 -0.0778159
lowerneck -23.5669 -4.56865 -5.61466
upperneck 12.3162 -4.50432 0.822393
head 7.75696 -2.33676 0.570905
rclavicle -1.63003e-014 -1.59028e-015
rhumerus -44.0031 16.9296 -90.5694
rradius 127.051
rwrist -8.73701
rhand -23.5827 12.8894
rfingers 7.12502
rthumb 2.88038 -17.0709
lclavicle -1.63003e-014 -1.59028e-015
lhumerus -84.0072 -5.25449 94.5451
lradius 104.951
lwrist 10.9736
lhand -23.0066 -11.6207
lfingers 7.12502
lthumb 3.43668 18.3313
rfemur 12.2958 3.58655 29.2014
rtibia 42.7641
rfoot 12.5918 -6.71158
rtoes -34.9898
lfemur -61.2308 0.782374 -18.9753
ltibia 39.1381
lfoot 8.64709 -9.92223
ltoes -21.2682
157
root 9.43167 16.3351 31.5505 11.9642 4.79315 -3.20831
lowerback 9.66926 2.26591 4.56427
upperback -1.60835 3.79229 3.00355
thorax -7.04453 1.7359 0.0130517
lowerneck -23.6284 -4.56657 -5.54925
upperneck 12.4572 -4.56603 1.0782
head 7.82091 -2.33688 0.63578
rclavicle 9.14409e-015 -8.74653e-015
rhumerus -44.2733 16.6797 -90.7419
rradius 125.126
rwrist -8.56491
rhand -23.3649 12.4897
rfingers 7.12502
rthumb 3.09068 -17.4677
lclavicle 9.14409e-015 -8.74653e-015
lhumerus -83.8406 -4.69549 94.2793
lradius 105.114
lwrist 11.0646
lhand -23.0127 -11.7302
lfingers 7.12502
lthumb 3.43082 18.222
rfemur 11.5947 3.73168 28.8765
rtibia 46.9201
rfoot 11.8984 -8.14264
rtoes -34.2414
lfemur -60.4821 0.804287 -18.6927
ltibia 39.2699
lfoot 9.67747 -9.8854
ltoes -19.766
158
root 9.43672 16.279 32.1078 11.3316 4.13507 -3.22432
lowerback 9.82823 2.38252 4.11018
upperback -1.43217 3.88482 2.89593
thorax -6.96498 1.79986 0.134421
lowerneck -23.6368 -4.54729 -5.45904
upperneck 12.5514 -4.6137 1.31789
head 7.85936 -2.33039 0.694723
rclavicle 6.16232e-015 -3.73715e-014
rhumerus -44.6115 16.3115 -90.9958
rradius 123.008
rwrist -8.40525
rhand -23.1503 12.1306
rfingers 7.12502
rthumb 3.29796 -17.8237
lclavicle 6.16232e-015 -3.73715e-014
lhumerus -83.5142 -4.20044 94.1208
lradius 105.226
lwrist 11.2333
lhand -23.0479 -11.8242
lfingers 7.12502
lthumb 3.39689 18.1284
rfemur 10.7208 3.7083 28.3511
rtibia 51.2628
rfoot 11.249 -9.47607
rtoes -33.2806
lfemur -59.5907 0.942298 -18.6506
ltibia 39.8816
lfoot 9.9576 -9.99002
ltoes -18.2458
159
root 9.44108 16.2149 32.6618 10.6474 3.5021 -3.14012
lowerback 10.0705 2.46881 3.57974
upperback -1.25047 3.93012 2.76971
thorax -6.93296 1.84156 0.28233
lowerneck -23.5863 -4.50734 -5.34774
upperneck 12.6045 -4.6392 1.53077
head 7.87266 -2.31509 0.745772
rclavicle 1.39149e-015 1.03368e-014
rhumerus -45.0217 15.8181 -91.3178
rradius 120.712
rwrist -8.27392
rhand -22.9493 11.796
rfingers 7.12502
rthumb 3.49202 -18.1552
lclavicle 1.39149e-015 1.03368e-014
lhumerus -83.0312 -3.77704 94.0707
lradius 105.267
lwrist 11.4377
lhand -23.1047 -11.8853
lfingers 7.12502
lthumb 3.34199 18.0683
rfemur 9.70353 3.50524 27.6491
rtibia 55.6768
rfoot 10.559 -10.7043
rtoes -32.2127
lfemur -58.5338 1.16545 -18.818
ltibia 40.9153
lfoot 9.64584 -10.2993
ltoes -15.2885
160
root 9.4449 16.1421 33.2108 9.92434 2.93355 -2.95233
lowerback 10.3884 2.51434 2.98203
upperback -1.06683 3.91335 2.62797
thorax -6.94672 1.8536 0.457946
lowerneck -23.4897 -4.44278 -5.21963
upperneck 12.6236 -4.63297 1.70931
head 7.86479 -2.28764 0.787982
rclavicle 4.53229e-014 0
rhumerus -45.4815 15.196 -91.6815
rradius 118.24
rwrist -8.17016
rhand -22.7641 11.4657
rfingers 7.12502
rthumb 3.67095 -18.4824
lclavicle 4.53229e-014 0
lhumerus -82.378 -3.43464 94.1275
lradius 105.209
lwrist 11.6468
lhand -23.1815 -11.9436
lfingers 7.12502
lthumb 3.26781 18.0111
rfemur 8.52802 3.10358 26.7737
rtibia 60.1365
rfoot 9.7232 -11.8491
rtoes -31.102
lfemur -57.37 1.43407 -19.1948
ltibia 42.382
lfoot 8.43989 -10.7315
ltoes -11.8183
161
root 9.44829 16.0755 33.7551 9.19328 2.47545 -2.61341
lowerback 10.7881 2.50643 2.27565
upperback -0.901163 3.81065 2.4643
thorax -7.03168 1.82565 0.681785
lowerneck -23.3699 -4.35091 -5.08154
upperneck 12.6309 -4.58505 1.84007
head 7.84632 -2.24513 0.818626
rclavicle -1.19271e-015 -2.06736e-014
rhumerus -45.9815 14.445 -92.0638
rradius 115.592
rwrist -8.11082
rhand -22.5897 11.1406
rfingers 7.12502
rthumb 3.83928 -18.8045
lclavicle -1.19271e-015 -2.06736e-014
lhumerus -81.5524 -3.17166 94.2825
lradius 105.026
lwrist 11.8383
lhand -23.2226 -11.894
lfingers 7.12502
lthumb 3.22817 18.0613
rfemur 7.17819 2.47095 25.6706
rtibia 64.5452
rfoot 8.7278 -12.8919
rtoes -29.9242
lfemur -56.0905 1.63724 -19.7636
ltibia 44.2096
lfoot 6.38679 -11.0109
ltoes -7.88787
162
root 9.44987 15.9922 34.2876 8.47924 2.1496 -2.02961
lowerback 11.269 2.44237 1.35531
upperback -0.751221 3.59867 2.25696
thorax -7.18702 1.75074 0.996122
lowerneck -23.265 -4.22936 -4.93614
upperneck 12.6341 -4.49007 1.92847
head 7.82609 -2.18429 0.839969
rclavicle -1.98785e-016 -2.46493e-014
rhumerus -46.4739 13.5695 -92.4359
rradius 112.75
rwrist -8.07558
rhand -22.4413 10.8338
rfingers 7.12502
rthumb 3.9826 -19.1087
lclavicle -1.98785e-016 -2.46493e-014
lhumerus -80.5328 -2.98926 94.5174
lradius 104.707
lwrist 12.008
lhand -23.232 -11.8093
lfingers 7.12502
lthumb 3.21907 18.1462
rfemur 5.61521 1.59594 24.2483
rtibia 68.9534
rfoot 7.48321 -13.8185
rtoes -28.6743
lfemur -54.8532 1.65981 -20.5604
ltibia 46.3826
lfoot 3.6923 -10.9283
ltoes -4.08978
163
root 9.44961 15.9096 34.8087 7.78449 2.00237 -1.20753
lowerback 11.8443 2.31606 0.242247
upperback -0.613853 3.26585 2.00685
thorax -7.4098 1.62373 1.39546
lowerneck -23.2029 -4.08563 -4.8015
upperneck 12.6426 -4.35464 1.99374
head 7.8129 -2.10692 0.859912
rclavicle -6.85807e-015 -5.56597e-015
rhumerus -46.927 12.5548 -92.7605
rradius 109.705
rwrist -8.0552
rhand -22.3232 10.5299
rfingers 7.12502
rthumb 4.09665 -19.4105
lclavicle -6.85807e-015 -5.56597e-015
lhumerus -79.2543 -2.90699 94.8217
lradius 104.188
lwrist 12.1838
lhand -23.1913 -11.6995
lfingers 7.12502
lthumb 3.25832 18.2553
rfemur 3.84607 0.452614 22.5127
rtibia 73.2677
rfoot 6.04197 -14.547
rtoes -27.4202
lfemur -53.5975 1.41364 -21.536
ltibia 48.7778
lfoot 0.606464 -10.3766
ltoes -0.940385
164
root 9.44794 15.8284 35.3169 7.14176 2.03774 -0.199353
lowerback 12.4692 2.13622 -0.992083
upperback -0.477822 2.82647 1.71728
thorax -7.65222 1.45045 1.84677
lowerneck -23.2096 -3.93509 -4.6834
upperneck 12.6448 -4.19878 2.04874
head 7.80825 -2.02117 0.880754
rclavicle -1.25234e-014 -2.46493e-014
rhumerus -47.2963 11.3753 -93.0022
rradius 106.457
rwrist -8.03674
rhand -22.1705 10.2138
rfingers 7.12502
rthumb 4.2441 -19.7236
lclavicle -1.25234e-014 -2.46493e-014
lhumerus -77.6658 -2.96357 95.1717
lradius 103.466
lwrist 12.3559
lhand -23.1316 -11.4952
lfingers 7.12502
lthumb 3.31599 18.4587
rfemur 1.835 -0.947827 20.5201
rtibia 77.4635
rfoot 4.42116 -15.0069
rtoes -26.2329
lfemur -52.3736 0.900603 -22.6414
ltibia 51.3187
lfoot -2.5928 -9.41156
ltoes 1.25578
165
root 9.44657 15.7512 35.8113 6.60635 2.24488 0.903368
lowerback 13.0926 1.90675 -2.22312
upperback -0.362581 2.30203 1.39855
thorax -7.89562 1.23761 2.29057
lowerneck -23.2719 -3.78888 -4.58825
upperneck 12.642 -4.03855 2.10425
head 7.81131 -1.93398 0.905261
rclavicle -1.63003e-014 7.55382e-015
rhumerus -47.5964 10.0227 -93.141
rradius 103.015
rwrist -7.98952
rhand -22.0492 9.8847
rfingers 7.12502
rthumb 4.3613 -20.0504
lclavicle -1.63003e-014 7.55382e-015
lhumerus -75.7617 -3.18761 95.55
lradius 102.504
lwrist 12.6187
lhand -23.0346 -11.3414
lfingers 7.12502
lthumb 3.40968 18.6111
rfemur -0.469038 -2.57496 18.3804
rtibia 81.4658
rfoot 2.6856 -15.1277
rtoes -25.0739
lfemur -51.2258 0.152872 -23.7948
ltibia 53.8655
lfoot -5.64656 -8.20031
ltoes 2.3839
166
root 9.44659 15.6799 36.2924 6.20771 2.57672 1.98275
lowerback 13.6547 1.64449 -3.318
upperback -0.266558 1.73963 1.07163
thorax -8.10104 1.00302 2.66605
lowerneck -23.3819 -3.66109 -4.51505
upperneck 12.6307 -3.89452 2.16399
head 7.82031 -1.85475 0.931973
rclavicle -7.65321e-015 9.93923e-015
rhumerus -47.8263 8.48205 -93.1406
rradius 99.3962
rwrist -7.92967
rhand -22.1302 9.62077
rfingers 7.12502
rthumb 4.283 -20.3159
lclavicle -7.65321e-015 9.93923e-015
lhumerus -73.5113 -3.61893 95.9251
lradius 101.286
lwrist 12.961
lhand -22.9233 -11.243
lfingers 7.12502
lthumb 3.51717 18.7077
rfemur -3.0994 -4.36397 16.2679
rtibia 85.2128
rfoot 0.908825 -14.9008
rtoes -24.0629
lfemur -50.1783 -0.751608 -24.8835
ltibia 56.3196
lfoot -8.40215 -6.9368
ltoes 2.45966
167
root 9.44987 15.6164 36.7626 5.94518 2.9543 2.92883
lowerback 14.0982 1.36869 -4.14972
upperback -0.202383 1.19464 0.754662
thorax -8.25429 0.767917 2.90735
lowerneck -23.4552 -3.5597 -4.47886
upperneck 12.6079 -3.77927 2.24033
head 7.82157 -1.78958 0.966797
rclavicle 4.57205e-015 3.18055e-015
rhumerus -48.0577 6.76875 -92.9904
rradius 95.6635
rwrist -7.8751
rhand -22.4295 9.38955
rfingers 7.12502
rthumb 3.99403 -20.5528
lclavicle 4.57205e-015 3.18055e-015
lhumerus -70.9892 -4.26567 96.2727
lradius 99.8556
lwrist 13.3584
lhand -22.8539 -11.274
lfingers 7.12502
lthumb 3.58419 18.6756
rfemur -6.04339 -6.21933 14.3577
rtibia 88.6217
rfoot -0.855256 -14.3701
rtoes -23.28
lfemur -49.1923 -1.67849 -25.8259
ltibia 58.6005
lfoot -10.7853 -5.92056
ltoes 2.94608
168
root 9.45699 15.5621 37.2244 5.80969 3.3157 3.68593
lowerback 14.3974 1.09181 -4.682
upperback -0.158832 0.699955 0.464166
thorax -8.3388 0.545447 3.00131
lowerneck -23.5253 -3.4803 -4.45453
upperneck 12.5947 -3.68902 2.30971
head 7.82641 -1.73764 0.99781
rclavicle 2.0773e-014 -1.11319e-014
rhumerus -48.296 4.95104 -92.6821
rradius 91.8924
rwrist -7.8837
rhand -22.9924 9.22505
rfingers 7.12502
rthumb 3.4504 -20.7268
lclavicle 2.0773e-014 -1.11319e-014
lhumerus -68.2177 -5.0753 96.5534
lradius 98.284
lwrist 13.7033
lhand -22.8322 -11.3954
lfingers 7.12502
lthumb 3.60511 18.5538
rfemur -9.28264 -8.05727 12.7855
rtibia 91.6122
rfoot -2.55487 -13.6225
rtoes -22.8072
lfemur -48.2254 -2.52079 -26.5829
ltibia 60.6356
lfoot -13.0981 -4.89075
ltoes 2.33949
169
root 9.46742 15.5172 37.6796 5.75664 3.5885 4.19674
lowerback 14.5599 0.837627 -4.89555
upperback -0.153468 0.297208 0.221756
thorax -8.38935 0.355556 2.94831
lowerneck -23.4854 -3.41981 -4.44375
upperneck 12.586 -3.62253 2.36265
head 7.81571 -1.70033 1.02339
rclavicle 2.78299e-015 3.97569e-015
rhumerus -48.6373 3.10753 -92.2204
rradius 88.1999
rwrist -8.02002
rhand -23.8017 9.13701
rfingers 7.12502
rthumb 2.66888 -20.826
lclavicle 2.78299e-015 3.97569e-015
lhumerus -65.3757 -5.96337 96.7446
lradius 96.7366
lwrist 13.8331
lhand -22.8422 -11.5358
lfingers 7.12502
lthumb 3.59544 18.4137
rfemur -12.7711 -9.75783 11.6979
rtibia 94.1125
rfoot -4.15289 -12.7865
rtoes -22.715
lfemur -47.1903 -3.18204 -27.0934
ltibia 62.3895
lfoot -15.2749 -4.04518
ltoes 1.97596
